{
  "accessors": [
    {
      "bufferView": 2,
      "componentType": 5126,
      "count": 4998,
      "max": [
        0.9218800067901611,
        23.770160675048828,
        3.5566298961639404
      ],
      "min": [
        -5.214590072631836,
        -0.8491799831390381,
        -4.352260112762451
      ],
      "type": "VEC3"
    },
    {
      "bufferView": 2,
      "byteOffset": 59976,
      "componentType": 5126,
      "count": 4998,
      "max": [
        1.0,
        0.9886066317558289,
        1.0
      ],
      "min": [
        -1.0,
        -1.0,
        -1.0
      ],
      "type": "VEC3"
    },
    {
      "bufferView": 1,
      "componentType": 5126,
      "count": 4998,
      "max": [
        0.0,
        0.0
      ],
      "min": [
        0.0,
        0.0
      ],
      "type": "VEC2"
    },
    {
      "bufferView": 0,
      "componentType": 5125,
      "count": 29952,
      "type": "SCALAR"
    }
  ],
  "asset": {
    "extras": {
      "author": "LogNworld (https://sketchfab.com/Logan_velez)",
      "license": "CC-BY-4.0 (http://creativecommons.org/licenses/by/4.0/)",
      "source": "https://sketchfab.com/3d-models/seaweed-for-my-game-e12401a67c8a4efa81fc3c1d5ce81791",
      "title": "SEAWEED For my Game"
    },
    "generator": "Sketchfab-12.68.0",
    "version": "2.0"
  },
  "bufferViews": [
    {
      "buffer": 0,
      "byteLength": 119808,
      "name": "floatBufferViews",
      "target": 34963
    },
    {
      "buffer": 0,
      "byteLength": 39984,
      "byteOffset": 119808,
      "byteStride": 8,
      "name": "floatBufferViews",
      "target": 34962
    },
    {
      "buffer": 0,
      "byteLength": 119952,
      "byteOffset": 159792,
      "byteStride": 12,
      "name": "floatBufferViews",
      "target": 34962
    }
  ],
  "buffers": [
    {
      "byteLength": 279744,
      "uri": "scene.bin"
    }
  ],
  "images": [
    {
      "uri": "textures/Material_baseColor.jpeg"
    }
  ],
  "materials": [
    {
      "doubleSided": true,
      "name": "Material",
      "pbrMetallicRoughness": {
        "baseColorTexture": {
          "index": 0
        },
        "metallicFactor": 0.0,
        "roughnessFactor": 0.6
      }
    }
  ],
  "meshes": [
    {
      "name": "Cube_0",
      "primitives": [
        {
          "attributes": {
            "NORMAL": 1,
            "POSITION": 0,
            "TEXCOORD_0": 2
          },
          "indices": 3,
          "material": 0,
          "mode": 4
        }
      ]
    }
  ],
  "nodes": [
    {
      "children": [
        1
      ],
      "matrix": [
        1.0,
        0.0,
        0.0,
        0.0,
        0.0,
        2.220446049250313e-16,
        -1.0,
        0.0,
        0.0,
        1.0,
        2.220446049250313e-16,
        0.0,
        0.0,
        0.0,
        0.0,
        1.0
      ],
      "name": "Sketchfab_model"
    },
    {
      "children": [
        2,
        4,
        6
      ],
      "name": "Root"
    },
    {
      "children": [
        3
      ],
      "matrix": [
        0.9607600000000001,
        0.27182000000000006,
        -0.05519000000000001,
        0.0,
        -0.18451000000000004,
        0.77492,
        0.6045200000000001,
        0.0,
        0.20709000000000002,
        -0.5706200000000001,
        0.7946700000000001,
        0.0,
        1.48097,
        -6.99385,
        10.52654,
        1.0
      ],
      "name": "Lamp"
    },
    {
      "name": "Lamp"
    },
    {
      "children": [
        5
      ],
      "matrix": [
        0.0,
        0.1516,
        0.0,
        0.0,
        -0.0,
        0.0,
        1.0,
        0.0,
        -0.3613200000000001,
        0.0,
        -0.0,
        0.0,
        0.0,
        0.0,
        0.0,
        1.0
      ],
      "name": "Cube"
    },
    {
      "mesh": 0,
      "name": "Cube_0"
    },
    {
      "children": [
        7
      ],
      "matrix": [
        0.95418,
        -0.05914000000000001,
        -0.2933200000000001,
        0.0,
        -0.18705000000000002,
        0.6472300000000001,
        -0.7389900000000001,
        0.0,
        0.23355,
        0.7600000000000001,
        0.60651,
        0.0,
        1.7447000000000001,
        6.27011,
        10.52654,
        1.0
      ],
      "name": "Lamp.001"
    },
    {
      "name": "Lamp.001"
    }
  ],
  "samplers": [
    {
      "magFilter": 9729,
      "minFilter": 9987,
      "wrapS": 10497,
      "wrapT": 10497
    }
  ],
  "scene": 0,
  "scenes": [
    {
      "name": "Sketchfab_Scene",
      "nodes": [
        0
      ]
    }
  ],
  "textures": [
    {
      "sampler": 0,
      "source": 0
    }
  ]
}
