{
  "accessors": [
    {
      "bufferView": 2,
      "componentType": 5126,
      "count": 65532,
      "max": [
        4.840335845947266,
        9.370088577270508,
        4.528009414672852
      ],
      "min": [
        -6.5814008712768555,
        -24.787147521972656,
        -6.846801280975342
      ],
      "type": "VEC3"
    },
    {
      "bufferView": 2,
      "byteOffset": 786384,
      "componentType": 5126,
      "count": 65532,
      "max": [
        1.0,
        1.0,
        1.0
      ],
      "min": [
        -1.0,
        -1.0,
        -1.0
      ],
      "type": "VEC3"
    },
    {
      "bufferView": 3,
      "componentType": 5126,
      "count": 65532,
      "max": [
        1.0,
        1.0,
        1.0,
        1.0
      ],
      "min": [
        -1.0,
        -1.0,
        -1.0,
        -1.0
      ],
      "type": "VEC4"
    },
    {
      "bufferView": 1,
      "componentType": 5126,
      "count": 65532,
      "max": [
        1.0,
        0.7614880800247192
      ],
      "min": [
        -0.0002622544125188142,
        0.0
      ],
      "type": "VEC2"
    },
    {
      "bufferView": 1,
      "byteOffset": 524256,
      "componentType": 5126,
      "count": 65532,
      "max": [
        1.0,
        0.7614880800247192
      ],
      "min": [
        -0.0002622544125188142,
        0.0
      ],
      "type": "VEC2"
    },
    {
      "bufferView": 1,
      "byteOffset": 1048512,
      "componentType": 5126,
      "count": 65532,
      "max": [
        1.0,
        0.7614880800247192
      ],
      "min": [
        -0.0002622544125188142,
        0.0
      ],
      "type": "VEC2"
    },
    {
      "bufferView": 0,
      "componentType": 5125,
      "count": 115773,
      "type": "SCALAR"
    },
    {
      "bufferView": 2,
      "byteOffset": 1572768,
      "componentType": 5126,
      "count": 1640,
      "max": [
        4.613205909729004,
        9.370084762573242,
        4.210140705108643
      ],
      "min": [
        -6.0526556968688965,
        -24.60480308532715,
        -6.846801280975342
      ],
      "type": "VEC3"
    },
    {
      "bufferView": 2,
      "byteOffset": 1592448,
      "componentType": 5126,
      "count": 1640,
      "max": [
        1.0,
        1.0,
        1.0
      ],
      "min": [
        -1.0,
        -1.0,
        -1.0
      ],
      "type": "VEC3"
    },
    {
      "bufferView": 3,
      "byteOffset": 1048512,
      "componentType": 5126,
      "count": 1640,
      "max": [
        1.0,
        1.0,
        1.0,
        1.0
      ],
      "min": [
        -1.0,
        -1.0,
        -1.0,
        -1.0
      ],
      "type": "VEC4"
    },
    {
      "bufferView": 1,
      "byteOffset": 1572768,
      "componentType": 5126,
      "count": 1640,
      "max": [
        0.9909427165985107,
        0.7402083277702332
      ],
      "min": [
        0.009667466394603252,
        0.0
      ],
      "type": "VEC2"
    },
    {
      "bufferView": 1,
      "byteOffset": 1585888,
      "componentType": 5126,
      "count": 1640,
      "max": [
        0.9909427165985107,
        0.7402083277702332
      ],
      "min": [
        0.009667466394603252,
        0.0
      ],
      "type": "VEC2"
    },
    {
      "bufferView": 1,
      "byteOffset": 1599008,
      "componentType": 5126,
      "count": 1640,
      "max": [
        0.9909427165985107,
        0.7402083277702332
      ],
      "min": [
        0.009667466394603252,
        0.0
      ],
      "type": "VEC2"
    },
    {
      "bufferView": 0,
      "byteOffset": 463092,
      "componentType": 5125,
      "count": 2460,
      "type": "SCALAR"
    },
    {
      "bufferView": 2,
      "byteOffset": 1612128,
      "componentType": 5126,
      "count": 34900,
      "max": [
        4.840335845947266,
        9.370088577270508,
        8.090808868408203
      ],
      "min": [
        -6.58141565322876,
        -24.787147521972656,
        4.528008460998535
      ],
      "type": "VEC3"
    },
    {
      "bufferView": 2,
      "byteOffset": 2030928,
      "componentType": 5126,
      "count": 34900,
      "max": [
        1.0,
        1.0,
        1.0
      ],
      "min": [
        -1.0,
        -1.0,
        -1.0
      ],
      "type": "VEC3"
    },
    {
      "bufferView": 3,
      "byteOffset": 1074752,
      "componentType": 5126,
      "count": 34900,
      "max": [
        1.0,
        1.0,
        1.0,
        1.0
      ],
      "min": [
        -1.0,
        -1.0,
        -1.0,
        -1.0
      ],
      "type": "VEC4"
    },
    {
      "bufferView": 1,
      "byteOffset": 1612128,
      "componentType": 5126,
      "count": 34900,
      "max": [
        1.0,
        1.0
      ],
      "min": [
        -0.0002622534811962396,
        0.0
      ],
      "type": "VEC2"
    },
    {
      "bufferView": 1,
      "byteOffset": 1891328,
      "componentType": 5126,
      "count": 34900,
      "max": [
        1.0,
        1.0
      ],
      "min": [
        -0.0002622534811962396,
        0.0
      ],
      "type": "VEC2"
    },
    {
      "bufferView": 1,
      "byteOffset": 2170528,
      "componentType": 5126,
      "count": 34900,
      "max": [
        1.0,
        1.0
      ],
      "min": [
        -0.0002622534811962396,
        0.0
      ],
      "type": "VEC2"
    },
    {
      "bufferView": 0,
      "byteOffset": 472932,
      "componentType": 5125,
      "count": 65244,
      "type": "SCALAR"
    },
    {
      "bufferView": 2,
      "byteOffset": 2449728,
      "componentType": 5126,
      "count": 7698,
      "max": [
        4.458491802215576,
        9.057108879089355,
        6.379707336425781
      ],
      "min": [
        -6.300149440765381,
        -24.440113067626953,
        -3.9274537563323975
      ],
      "type": "VEC3"
    },
    {
      "bufferView": 2,
      "byteOffset": 2542104,
      "componentType": 5126,
      "count": 7698,
      "max": [
        1.0,
        1.0,
        1.0
      ],
      "min": [
        -1.0,
        -1.0,
        -1.0
      ],
      "type": "VEC3"
    },
    {
      "bufferView": 3,
      "byteOffset": 1633152,
      "componentType": 5126,
      "count": 7698,
      "max": [
        1.0,
        1.0,
        1.0,
        1.0
      ],
      "min": [
        -1.0,
        -1.0,
        -1.0,
        -1.0
      ],
      "type": "VEC4"
    },
    {
      "bufferView": 1,
      "byteOffset": 2449728,
      "componentType": 5126,
      "count": 7698,
      "max": [
        0.9688316583633423,
        0.8854504227638245
      ],
      "min": [
        0.011603506281971931,
        0.1954360455274582
      ],
      "type": "VEC2"
    },
    {
      "bufferView": 0,
      "byteOffset": 733908,
      "componentType": 5125,
      "count": 11604,
      "type": "SCALAR"
    },
    {
      "bufferView": 2,
      "byteOffset": 2634480,
      "componentType": 5126,
      "count": 2228,
      "max": [
        4.908023357391357,
        9.527887344360352,
        8.327327728271484
      ],
      "min": [
        -6.702785968780518,
        -24.979177474975586,
        -6.83660364151001
      ],
      "type": "VEC3"
    },
    {
      "bufferView": 2,
      "byteOffset": 2661216,
      "componentType": 5126,
      "count": 2228,
      "max": [
        1.0,
        1.0,
        1.0
      ],
      "min": [
        -1.0,
        -1.0,
        -1.0
      ],
      "type": "VEC3"
    },
    {
      "bufferView": 1,
      "byteOffset": 2511312,
      "componentType": 5126,
      "count": 2228,
      "max": [
        1.9425086975097656,
        1.9425088167190552
      ],
      "min": [
        -0.9425088167190552,
        -0.9425087571144104
      ],
      "type": "VEC2"
    },
    {
      "bufferView": 0,
      "byteOffset": 780324,
      "componentType": 5125,
      "count": 6300,
      "type": "SCALAR"
    }
  ],
  "asset": {
    "extras": {
      "author": "Hrvoje Wächter (https://sketchfab.com/gazdahrco)",
      "license": "CC-BY-4.0 (http://creativecommons.org/licenses/by/4.0/)",
      "source": "https://sketchfab.com/3d-models/old-industrial-building-0dafa7aaadfd4666bb4a32776c84b14e",
      "title": "Old Industrial Building"
    },
    "generator": "Sketchfab-12.68.0",
    "version": "2.0"
  },
  "bufferViews": [
    {
      "buffer": 0,
      "byteLength": 805524,
      "name": "floatBufferViews",
      "target": 34963
    },
    {
      "buffer": 0,
      "byteLength": 2529136,
      "byteOffset": 805524,
      "byteStride": 8,
      "name": "floatBufferViews",
      "target": 34962
    },
    {
      "buffer": 0,
      "byteLength": 2687952,
      "byteOffset": 3334660,
      "byteStride": 12,
      "name": "floatBufferViews",
      "target": 34962
    },
    {
      "buffer": 0,
      "byteLength": 1756320,
      "byteOffset": 6022612,
      "byteStride": 16,
      "name": "floatBufferViews",
      "target": 34962
    }
  ],
  "buffers": [
    {
      "byteLength": 7778932,
      "uri": "scene.bin"
    }
  ],
  "extensionsUsed": [
    "KHR_materials_clearcoat"
  ],
  "images": [
    {
      "uri": "textures/building_baseColor.jpeg"
    },
    {
      "uri": "textures/building_metallicRoughness.png"
    },
    {
      "uri": "textures/building_normal.png"
    },
    {
      "uri": "textures/building_windows_metallicRoughness.png"
    },
    {
      "uri": "textures/building_floor_baseColor.jpeg"
    }
  ],
  "materials": [
    {
      "doubleSided": true,
      "name": "building",
      "normalTexture": {
        "index": 2
      },
      "occlusionTexture": {
        "index": 1
      },
      "pbrMetallicRoughness": {
        "baseColorTexture": {
          "index": 0
        },
        "metallicFactor": 0.0,
        "metallicRoughnessTexture": {
          "index": 1
        }
      }
    },
    {
      "doubleSided": true,
      "extensions": {
        "KHR_materials_clearcoat": {
          "clearcoatFactor": 1.0,
          "clearcoatRoughnessFactor": 0.0
        }
      },
      "name": "building_windows",
      "normalTexture": {
        "index": 2,
        "scale": 0.08342915928639254
      },
      "occlusionTexture": {
        "index": 3
      },
      "pbrMetallicRoughness": {
        "baseColorTexture": {
          "index": 0
        },
        "metallicRoughnessTexture": {
          "index": 3
        }
      }
    },
    {
      "doubleSided": true,
      "name": "building_floor",
      "pbrMetallicRoughness": {
        "baseColorTexture": {
          "index": 4
        },
        "metallicFactor": 0.0,
        "roughnessFactor": 0.8211145618000169
      }
    }
  ],
  "meshes": [
    {
      "name": "building _building _0",
      "primitives": [
        {
          "attributes": {
            "NORMAL": 1,
            "POSITION": 0,
            "TANGENT": 2,
            "TEXCOORD_0": 3,
            "TEXCOORD_1": 4,
            "TEXCOORD_2": 5
          },
          "indices": 6,
          "material": 0,
          "mode": 4
        }
      ]
    },
    {
      "name": "building _building _0",
      "primitives": [
        {
          "attributes": {
            "NORMAL": 8,
            "POSITION": 7,
            "TANGENT": 9,
            "TEXCOORD_0": 10,
            "TEXCOORD_1": 11,
            "TEXCOORD_2": 12
          },
          "indices": 13,
          "material": 0,
          "mode": 4
        }
      ]
    },
    {
      "name": "building top_building _0",
      "primitives": [
        {
          "attributes": {
            "NORMAL": 15,
            "POSITION": 14,
            "TANGENT": 16,
            "TEXCOORD_0": 17,
            "TEXCOORD_1": 18,
            "TEXCOORD_2": 19
          },
          "indices": 20,
          "material": 0,
          "mode": 4
        }
      ]
    },
    {
      "name": "building windows_building windows_0",
      "primitives": [
        {
          "attributes": {
            "NORMAL": 22,
            "POSITION": 21,
            "TANGENT": 23,
            "TEXCOORD_0": 24
          },
          "indices": 25,
          "material": 1,
          "mode": 4
        }
      ]
    },
    {
      "name": "building floor_building floor_0",
      "primitives": [
        {
          "attributes": {
            "NORMAL": 27,
            "POSITION": 26,
            "TEXCOORD_0": 28
          },
          "indices": 29,
          "material": 2,
          "mode": 4
        }
      ]
    }
  ],
  "nodes": [
    {
      "children": [
        1
      ],
      "matrix": [
        1.0,
        0.0,
        0.0,
        0.0,
        0.0,
        2.220446049250313e-16,
        -1.0,
        0.0,
        0.0,
        1.0,
        2.220446049250313e-16,
        0.0,
        0.0,
        0.0,
        0.0,
        1.0
      ],
      "name": "Sketchfab_model"
    },
    {
      "children": [
        2
      ],
      "matrix": [
        1.0,
        0.0,
        0.0,
        0.0,
        0.0,
        0.0,
        1.0,
        0.0,
        0.0,
        -1.0,
        0.0,
        0.0,
        0.0,
        0.0,
        0.0,
        1.0
      ],
      "name": "4cfd79d3259444ceb3cc013c7b29652a.fbx"
    },
    {
      "children": [
        3,
        6,
        8,
        10
      ],
      "name": "RootNode"
    },
    {
      "children": [
        4,
        5
      ],
      "matrix": [
        100.0,
        0.0,
        0.0,
        0.0,
        0.0,
        -1.629206793918314e-05,
        -99.99999999999868,
        0.0,
        0.0,
        99.99999999999868,
        -1.629206793918314e-05,
        0.0,
        0.0,
        0.0,
        0.0,
        1.0
      ],
      "name": "building "
    },
    {
      "mesh": 0,
      "name": "building _building _0"
    },
    {
      "mesh": 1,
      "name": "building _building _0"
    },
    {
      "children": [
        7
      ],
      "matrix": [
        100.0,
        0.0,
        0.0,
        0.0,
        0.0,
        -1.629206793918314e-05,
        -99.99999999999868,
        0.0,
        0.0,
        99.99999999999868,
        -1.629206793918314e-05,
        0.0,
        0.0,
        0.0,
        0.0,
        1.0
      ],
      "name": "building top"
    },
    {
      "mesh": 2,
      "name": "building top_building _0"
    },
    {
      "children": [
        9
      ],
      "matrix": [
        100.0,
        0.0,
        0.0,
        0.0,
        0.0,
        -1.629206793918314e-05,
        -99.99999999999868,
        0.0,
        0.0,
        99.99999999999868,
        -1.629206793918314e-05,
        0.0,
        0.0,
        0.0,
        0.0,
        1.0
      ],
      "name": "building windows"
    },
    {
      "mesh": 3,
      "name": "building windows_building windows_0"
    },
    {
      "children": [
        11
      ],
      "matrix": [
        100.0,
        0.0,
        0.0,
        0.0,
        0.0,
        -1.629206793918314e-05,
        -99.99999999999868,
        0.0,
        0.0,
        99.99999999999868,
        -1.629206793918314e-05,
        0.0,
        0.0,
        0.0,
        0.0,
        1.0
      ],
      "name": "building floor"
    },
    {
      "mesh": 4,
      "name": "building floor_building floor_0"
    }
  ],
  "samplers": [
    {
      "magFilter": 9729,
      "minFilter": 9987,
      "wrapS": 10497,
      "wrapT": 10497
    }
  ],
  "scene": 0,
  "scenes": [
    {
      "name": "Sketchfab_Scene",
      "nodes": [
        0
      ]
    }
  ],
  "textures": [
    {
      "sampler": 0,
      "source": 0
    },
    {
      "sampler": 0,
      "source": 1
    },
    {
      "sampler": 0,
      "source": 2
    },
    {
      "sampler": 0,
      "source": 3
    },
    {
      "sampler": 0,
      "source": 4
    }
  ]
}
