{
  "accessors": [
    {
      "bufferView": 2,
      "componentType": 5126,
      "count": 384,
      "max": [
        2.8267738819122314,
        21.853668212890625,
        192.9040985107422
      ],
      "min": [
        -31.51481819152832,
        -21.371109008789063,
        -7.975962162017822
      ],
      "type": "VEC3"
    },
    {
      "bufferView": 2,
      "byteOffset": 4608,
      "componentType": 5126,
      "count": 384,
      "max": [
        0.9812749028205872,
        0.9753302931785583,
        0.9836580753326416
      ],
      "min": [
        -0.9536455273628235,
        -0.9877025485038757,
        -0.9953334331512451
      ],
      "type": "VEC3"
    },
    {
      "bufferView": 1,
      "componentType": 5126,
      "count": 384,
      "max": [
        1.0,
        1.0
      ],
      "min": [
        0.0,
        0.0
      ],
      "type": "VEC2"
    },
    {
      "bufferView": 0,
      "componentType": 5125,
      "count": 384,
      "type": "SCALAR"
    },
    {
      "bufferView": 2,
      "byteOffset": 9216,
      "componentType": 5126,
      "count": 1272,
      "max": [
        3.21999192237854,
        30.851274490356445,
        207.52915954589844
      ],
      "min": [
        -33.7973747253418,
        -24.485523223876953,
        -10.086007118225098
      ],
      "type": "VEC3"
    },
    {
      "bufferView": 2,
      "byteOffset": 24480,
      "componentType": 5126,
      "count": 1272,
      "max": [
        0.9988967776298523,
        0.9975159764289856,
        0.851917028427124
      ],
      "min": [
        -0.9988360404968262,
        -0.9991856813430786,
        -0.9911701679229736
      ],
      "type": "VEC3"
    },
    {
      "bufferView": 1,
      "byteOffset": 3072,
      "componentType": 5126,
      "count": 1272,
      "max": [
        0.0,
        1.0
      ],
      "min": [
        0.0,
        1.0
      ],
      "type": "VEC2"
    },
    {
      "bufferView": 0,
      "byteOffset": 1536,
      "componentType": 5125,
      "count": 1272,
      "type": "SCALAR"
    },
    {
      "bufferView": 2,
      "byteOffset": 39744,
      "componentType": 5126,
      "count": 9849,
      "max": [
        29.112064361572266,
        76.76367950439453,
        26.582489013671875
      ],
      "min": [
        -25.10965919494629,
        -0.1293559968471527,
        -223.18173217773438
      ],
      "type": "VEC3"
    },
    {
      "bufferView": 2,
      "byteOffset": 157932,
      "componentType": 5126,
      "count": 9849,
      "max": [
        0.9999332427978516,
        0.9989668726921082,
        0.9989187121391296
      ],
      "min": [
        -1.0,
        -0.9996644854545593,
        -0.998284637928009
      ],
      "type": "VEC3"
    },
    {
      "bufferView": 1,
      "byteOffset": 13248,
      "componentType": 5126,
      "count": 9849,
      "max": [
        0.9722893238067627,
        1.0
      ],
      "min": [
        0.0,
        0.060353636741638184
      ],
      "type": "VEC2"
    },
    {
      "bufferView": 0,
      "byteOffset": 6624,
      "componentType": 5125,
      "count": 9849,
      "type": "SCALAR"
    },
    {
      "bufferView": 2,
      "byteOffset": 276120,
      "componentType": 5126,
      "count": 612,
      "max": [
        12.024072647094727,
        70.7015380859375,
        26.582489013671875
      ],
      "min": [
        -7.79257869720459,
        57.75053024291992,
        -180.94337463378906
      ],
      "type": "VEC3"
    },
    {
      "bufferView": 2,
      "byteOffset": 283464,
      "componentType": 5126,
      "count": 612,
      "max": [
        0.9129705429077148,
        0.867595374584198,
        0.9883912205696106
      ],
      "min": [
        -0.9129705429077148,
        -0.8686994314193726,
        -0.9129705429077148
      ],
      "type": "VEC3"
    },
    {
      "bufferView": 1,
      "byteOffset": 92040,
      "componentType": 5126,
      "count": 612,
      "max": [
        1.0,
        1.0
      ],
      "min": [
        0.0,
        0.0
      ],
      "type": "VEC2"
    },
    {
      "bufferView": 0,
      "byteOffset": 46020,
      "componentType": 5125,
      "count": 612,
      "type": "SCALAR"
    },
    {
      "bufferView": 2,
      "byteOffset": 290808,
      "componentType": 5126,
      "count": 1590,
      "max": [
        42.44127655029297,
        -0.28766143321990967,
        128.18637084960938
      ],
      "min": [
        -43.209476470947266,
        -3.0175013542175293,
        -139.75054931640625
      ],
      "type": "VEC3"
    },
    {
      "bufferView": 2,
      "byteOffset": 309888,
      "componentType": 5126,
      "count": 1590,
      "max": [
        0.9978551268577576,
        0.9999979734420776,
        0.9992433190345764
      ],
      "min": [
        -0.9903051257133484,
        -0.9999992251396179,
        -0.9961497783660889
      ],
      "type": "VEC3"
    },
    {
      "bufferView": 1,
      "byteOffset": 96936,
      "componentType": 5126,
      "count": 1590,
      "max": [
        1.0,
        0.9670465588569641
      ],
      "min": [
        0.0,
        0.0
      ],
      "type": "VEC2"
    },
    {
      "bufferView": 0,
      "byteOffset": 48468,
      "componentType": 5125,
      "count": 1590,
      "type": "SCALAR"
    },
    {
      "bufferView": 2,
      "byteOffset": 328968,
      "componentType": 5126,
      "count": 927,
      "max": [
        138.52952575683594,
        4.849910259246826,
        181.25894165039063
      ],
      "min": [
        -141.12637329101563,
        -7.788910865783691,
        -220.06643676757813
      ],
      "type": "VEC3"
    },
    {
      "bufferView": 2,
      "byteOffset": 340092,
      "componentType": 5126,
      "count": 927,
      "max": [
        0.5191704630851746,
        0.999981164932251,
        0.798500657081604
      ],
      "min": [
        -0.47405925393104553,
        -0.9483181238174438,
        -0.8934904336929321
      ],
      "type": "VEC3"
    },
    {
      "bufferView": 1,
      "byteOffset": 109656,
      "componentType": 5126,
      "count": 927,
      "max": [
        0.0,
        1.0
      ],
      "min": [
        0.0,
        1.0
      ],
      "type": "VEC2"
    },
    {
      "bufferView": 0,
      "byteOffset": 54828,
      "componentType": 5125,
      "count": 927,
      "type": "SCALAR"
    }
  ],
  "asset": {
    "extras": {
      "author": "UJJWAL CHAUHAN (https://sketchfab.com/Ujjwal-Chauhan)",
      "license": "CC-BY-4.0 (http://creativecommons.org/licenses/by/4.0/)",
      "source": "https://sketchfab.com/3d-models/polar-bear-family-321bee88e54b4fd1b7363d5d030b250a",
      "title": "POLAR BEAR FAMILY"
    },
    "generator": "Sketchfab-16.7.0",
    "version": "2.0"
  },
  "bufferViews": [
    {
      "buffer": 0,
      "byteLength": 58536,
      "name": "floatBufferViews",
      "target": 34963
    },
    {
      "buffer": 0,
      "byteLength": 117072,
      "byteOffset": 58536,
      "byteStride": 8,
      "name": "floatBufferViews",
      "target": 34962
    },
    {
      "buffer": 0,
      "byteLength": 351216,
      "byteOffset": 175608,
      "byteStride": 12,
      "name": "floatBufferViews",
      "target": 34962
    }
  ],
  "buffers": [
    {
      "byteLength": 526824,
      "uri": "scene.bin"
    }
  ],
  "extensionsUsed": [
    "KHR_materials_specular"
  ],
  "materials": [
    {
      "doubleSided": true,
      "name": "material",
      "pbrMetallicRoughness": {
        "baseColorFactor": [
          0.0,
          0.0,
          0.0,
          1.0
        ],
        "metallicFactor": 0.0,
        "roughnessFactor": 0.9524317153998911
      }
    },
    {
      "doubleSided": true,
      "extensions": {
        "KHR_materials_specular": {
          "specularColorFactor": [
            1.0,
            1.0,
            1.0
          ],
          "specularFactor": 0.9200210091452928
        }
      },
      "name": "Mat.3",
      "pbrMetallicRoughness": {
        "baseColorFactor": [
          0.8103699510436352,
          0.13520740311820634,
          0.13520740311820634,
          1.0
        ],
        "metallicFactor": 0.0,
        "roughnessFactor": 0.3441299342509334
      }
    },
    {
      "doubleSided": true,
      "name": "Mat.1",
      "pbrMetallicRoughness": {
        "baseColorFactor": [
          0.6912592433859023,
          0.6912592433859023,
          0.6912592433859023,
          1.0
        ],
        "metallicFactor": 0.0,
        "roughnessFactor": 0.9524317153998911
      }
    },
    {
      "doubleSided": true,
      "name": "Mat.4",
      "pbrMetallicRoughness": {
        "baseColorFactor": [
          0.8,
          0.8,
          0.8,
          1.0
        ],
        "metallicFactor": 0.0,
        "roughnessFactor": 0.9524317153998911
      }
    },
    {
      "alphaMode": "BLEND",
      "doubleSided": true,
      "extensions": {
        "KHR_materials_specular": {
          "specularColorFactor": [
            1.0,
            1.0,
            1.0
          ],
          "specularFactor": 0.47348012864214817
        }
      },
      "name": "Mat.2",
      "pbrMetallicRoughness": {
        "baseColorFactor": [
          0.0,
          0.16307669953243548,
          0.5081163632990751,
          0.48249471412514744
        ],
        "roughnessFactor": 0.48249471412514744
      }
    }
  ],
  "meshes": [
    {
      "name": "FF_0_Mat_0",
      "primitives": [
        {
          "attributes": {
            "NORMAL": 1,
            "POSITION": 0,
            "TEXCOORD_0": 2
          },
          "indices": 3,
          "material": 0,
          "mode": 4
        }
      ]
    },
    {
      "name": "FF_0_Mat.3_0",
      "primitives": [
        {
          "attributes": {
            "NORMAL": 5,
            "POSITION": 4,
            "TEXCOORD_0": 6
          },
          "indices": 7,
          "material": 1,
          "mode": 4
        }
      ]
    },
    {
      "name": "M_B1_1_Mat.1_0",
      "primitives": [
        {
          "attributes": {
            "NORMAL": 9,
            "POSITION": 8,
            "TEXCOORD_0": 10
          },
          "indices": 11,
          "material": 2,
          "mode": 4
        }
      ]
    },
    {
      "name": "M_B1_1_Mat_0",
      "primitives": [
        {
          "attributes": {
            "NORMAL": 13,
            "POSITION": 12,
            "TEXCOORD_0": 14
          },
          "indices": 15,
          "material": 0,
          "mode": 4
        }
      ]
    },
    {
      "name": "WATER_1_Mat.4_0",
      "primitives": [
        {
          "attributes": {
            "NORMAL": 17,
            "POSITION": 16,
            "TEXCOORD_0": 18
          },
          "indices": 19,
          "material": 3,
          "mode": 4
        }
      ]
    },
    {
      "name": "WATER_1_Mat.2_0",
      "primitives": [
        {
          "attributes": {
            "NORMAL": 21,
            "POSITION": 20,
            "TEXCOORD_0": 22
          },
          "indices": 23,
          "material": 4,
          "mode": 4
        }
      ]
    }
  ],
  "nodes": [
    {
      "children": [
        1
      ],
      "matrix": [
        1.0,
        0.0,
        0.0,
        0.0,
        0.0,
        3.828568672208042e-16,
        -1.0,
        0.0,
        0.0,
        1.0,
        3.828568672208042e-16,
        0.0,
        0.0,
        0.0,
        0.0,
        1.0
      ],
      "name": "Sketchfab_model"
    },
    {
      "children": [
        2
      ],
      "matrix": [
        1.0,
        0.0,
        0.0,
        0.0,
        0.0,
        0.0,
        1.0,
        0.0,
        0.0,
        -1.0,
        0.0,
        0.0,
        0.0,
        0.0,
        0.0,
        1.0
      ],
      "name": "FINAL 22.c4d.fbx"
    },
    {
      "children": [
        3,
        6,
        9
      ],
      "name": "RootNode"
    },
    {
      "children": [
        4,
        5
      ],
      "matrix": [
        0.9882251847834198,
        0.0273642109819119,
        -0.15053964300845524,
        0.0,
        1.923808334858279e-15,
        0.9838775392309499,
        0.1788434728941781,
        0.0,
        0.15300648404487877,
        -0.176737624048158,
        0.9722925630107618,
        0.0,
        -20.506765365600586,
        -39.68510055541992,
        -146.44480895996094,
        1.0
      ],
      "name": "FF_0"
    },
    {
      "mesh": 0,
      "name": "FF_0_Mat_0"
    },
    {
      "mesh": 1,
      "name": "FF_0_Mat.3_0"
    },
    {
      "children": [
        7,
        8
      ],
      "matrix": [
        1.0,
        0.0,
        0.0,
        0.0,
        0.0,
        1.0,
        0.0,
        0.0,
        0.0,
        0.0,
        1.0,
        0.0,
        -2.0012025833129883,
        -41.9384880065918,
        37.253414154052734,
        1.0
      ],
      "name": "M_B1_1"
    },
    {
      "mesh": 2,
      "name": "M_B1_1_Mat.1_0"
    },
    {
      "mesh": 3,
      "name": "M_B1_1_Mat_0"
    },
    {
      "children": [
        10,
        11
      ],
      "matrix": [
        1.0,
        0.0,
        0.0,
        0.0,
        0.0,
        1.0,
        0.0,
        0.0,
        0.0,
        0.0,
        1.0,
        0.0,
        0.0,
        3.861013650894165,
        -51.235191345214844,
        1.0
      ],
      "name": "WATER_1"
    },
    {
      "mesh": 4,
      "name": "WATER_1_Mat.4_0"
    },
    {
      "mesh": 5,
      "name": "WATER_1_Mat.2_0"
    }
  ],
  "scene": 0,
  "scenes": [
    {
      "name": "Sketchfab_Scene",
      "nodes": [
        0
      ]
    }
  ]
}
